<svg width="335px" height="50px" viewBox="149 16 335 50" version="1.1" xmlns="http://www.w3.org/2000/svg" xmlns:xlink="http://www.w3.org/1999/xlink">
    <defs></defs>
    <g id="logo-w" opacity="0.900000036" stroke="none" stroke-width="1" fill="none" fill-rule="evenodd" transform="translate(149.000000, 16.000000)">
        <g id="tree" fill="#FFFFFF">
            <path d="M28.955144,1.94174757 C29.4557755,2.56501911 29.6521014,3.3780986 29.4908093,4.16019417 C29.8803841,4.47087379 30.4014403,4.64563107 30.6449246,5.10679612 C30.7814908,4.85471898 30.8534236,4.57289563 30.854321,4.28640777 C31.302332,4.32038835 31.6432099,5.2815534 32.1691358,5.25728155 C32.5587106,5.25728155 32.6561043,4.77184466 32.9093278,4.51941748 C33.1001656,4.73636965 33.216222,5.00858483 33.2404664,5.2961165 C33.5061168,4.88625524 33.894626,4.57031032 34.3507545,4.39320388 C34.6017228,4.81653679 34.7439082,5.29511191 34.7646776,5.78640777 C35.3730546,5.49546843 36.007211,5.26145476 36.6589849,5.08737864 C36.0697531,5.7038835 36.1038409,6.94174757 36.0454047,8.08737864 C36.6522057,7.96039607 37.2832724,8.01789281 37.8569273,8.25242718 C37.7306705,8.42616192 37.5634188,8.56621151 37.3699588,8.66019417 C36.7249932,8.44370821 36.0128108,8.60064287 35.5194787,9.06796117 C35.592524,8.05825243 35.4951303,6.87864078 35.685048,5.99029126 C35.1980796,6.12135922 34.8766804,6.38834951 34.4091907,6.52427184 C34.3166667,6.08252427 34.233882,5.63106796 34.1608368,5.16504854 C33.7371742,5.33495146 33.4693416,6.00485437 33.2550754,6.52427184 C33.0949475,6.48516009 32.9322048,6.45758084 32.768107,6.44174757 L32.768107,5.62621359 C32.320096,5.97572816 31.501989,5.65048544 31.2000686,5.25728155 C30.9858025,5.59223301 31.039369,6.19417476 30.9517147,6.65048544 C30.6202808,5.63633429 29.8499484,4.82388233 28.8528807,4.4368932 C29.2034979,3.95145631 29.0233196,3.10679612 28.8090535,2.63106796 C27.9958162,3.11650485 27.8984225,4.2961165 26.7930041,4.47572816 C26.6858445,4.09606148 26.5473991,3.7258701 26.3790809,3.36893204 C26.2475995,3.9223301 26.223251,4.58252427 26.0917695,5.13592233 C25.5171468,4.51456311 25.4197531,3.43203883 24.3484225,3.33009709 C24.3484524,3.15139918 24.3614724,2.97293832 24.38738,2.7961165 C24.931875,2.84993071 25.42683,3.1346516 25.7460219,3.5776699 C25.786797,3.16357697 25.9834136,2.78025295 26.2962963,2.50485437 C26.6916275,2.81862192 26.9750759,3.25096804 27.1046639,3.73786408 C27.7572016,3.16990291 27.9812071,2.17475728 28.955144,1.94174757 L28.955144,1.94174757 L28.955144,1.94174757 Z" id="Shape"></path>
            <path d="M13.1822359,5.70873786 C12.3543896,5.58737864 11.8576818,5.1407767 10.835048,5.22330097 C10.8019767,5.0472942 10.7872892,4.86834515 10.7912209,4.68932039 C11.3239049,4.66208797 11.8564027,4.74642433 12.3543896,4.9368932 C12.4176955,4.78640777 12.0475995,4.72815534 12.023251,4.52912621 C12.1049653,4.41238103 12.1735531,4.28703219 12.2277778,4.15533981 C12.8559671,4.3592233 13.1140604,4.9368932 13.1724966,5.7184466 L13.1724966,5.7184466 L13.1822359,5.70873786 Z" id="Shape"></path>
            <path d="M28.9161866,6.7961165 C28.1078189,7.54854369 26.6907407,7.69902913 25.9943759,8.55825243 C25.6632373,8.33980583 25.1762689,8.2815534 24.8402606,8.07281553 C24.9306076,7.92658865 25.0134976,7.77591176 25.0886145,7.62135922 C25.3467078,7.72330097 25.6340192,7.79126214 25.8726337,7.90776699 C26.5982167,7.30097087 27.6403292,7.01941748 28.4681756,6.50970874 C28.6418524,6.56614354 28.7978875,6.66649479 28.9210562,6.80097087 L28.9210562,6.80097087 L28.9161866,6.7961165 Z" id="Shape"></path>
            <path d="M11.9842936,8.73786408 C12.024081,8.34274422 12.0387193,7.94550864 12.0281207,7.54854369 C12.2075346,7.52768778 12.3892872,7.54086458 12.563786,7.58737864 C12.6247735,8.24495019 12.5399875,8.90784688 12.3154321,9.52912621 C11.6288066,9.31067961 11.2587106,8.77669903 10.8545267,8.2961165 C10.1230232,8.20113364 9.38327057,8.18648279 8.64855967,8.25242718 C8.81899863,8.73786408 9.13552812,9.09708738 9.2670096,9.60679612 C8.45594075,9.54113566 7.64034034,9.5557703 6.83216735,9.65048544 C7.11460905,10.2135922 7.70384088,10.4757282 8.10802469,10.9223301 C7.66001372,10.9223301 7.13408779,10.8640777 6.91495199,11.0873786 C7.05615968,11.7026664 7.6063348,12.138196 8.23950617,12.1359223 C8.25981472,12.3150642 8.24492853,12.4964342 8.19567901,12.6699029 C7.00747599,12.5825243 6.45720165,11.8592233 6.24780521,10.7815534 C6.43002181,10.7235666 6.6088543,10.6554999 6.78347051,10.5776699 C6.6276406,10.1941748 6.15041152,9.83009709 6.14067215,9.22330097 C6.8907222,9.11602163 7.64734874,9.06087239 8.40507545,9.05825243 C8.27359396,8.65533981 8.02037037,8.37378641 7.918107,7.94660194 C8.57044573,7.68300426 9.28148901,7.59754526 9.97798354,7.69902913 C9.92363148,7.43936144 10.0884372,7.18428363 10.3480796,7.12621359 C10.9957476,7.54854369 11.4048011,8.25242718 11.9842936,8.73786408 L11.9842936,8.73786408 L11.9842936,8.73786408 Z" id="Shape"></path>
            <path d="M10.1338134,9.2815534 C11.1676034,10.3652081 12.0923919,11.5472306 12.8949246,12.8106796 C12.2423868,12.8592233 11.7067215,12.7427184 11.1661866,12.8106796 C10.3675583,12.9126214 9.64197531,13.4805825 8.8579561,13.0970874 C8.97969822,12.2475728 9.68093278,11.9757282 10.1338134,11.4563107 L10.1338134,9.2815534 L10.1338134,9.2815534 L10.1338134,9.2815534 Z" id="Shape"></path>
            <path d="M7.37270233,13.9223301 C7.39398125,14.1011718 7.38075797,14.28242 7.33374486,14.4563107 C6.68195384,14.3798882 6.05359798,14.7252751 5.77057613,15.315534 C6.20884774,15.4271845 6.68120713,15.2135922 7.16817558,15.2330097 C7.21597085,15.3633245 7.23101835,15.5033261 7.21200274,15.6407767 C7.47496571,15.5097087 7.80123457,15.0776699 8.23950617,14.9854369 C8.3332862,15.1491835 8.38980985,15.3314791 8.40507545,15.5194175 C7.80123457,15.6553398 7.55775034,16.1504854 7.25096022,16.5873786 C7.02695473,16.5873786 6.9733882,16.4563107 6.76399177,16.4660194 C6.77357523,16.2444859 6.74558739,16.0229285 6.68120713,15.8106796 C6.19665038,15.9265032 5.68863063,15.8978059 5.22030178,15.7281553 C5.278738,14.461165 6.12119342,13.9708738 7.40192044,13.9223301 L7.40192044,13.9223301 L7.37270233,13.9223301 Z" id="Shape"></path>
            <path d="M23.76893,40.7330097 C23.9344993,42.9368932 23.2430041,44.6407767 23.2332647,46.8106796 C23.6114119,46.3512327 23.9548551,45.8644607 24.2607682,45.3543689 C24.5042524,44.9854369 25.205487,44.1601942 25.2931413,43.7524272 C25.321518,43.3840374 25.321518,43.0140209 25.2931413,42.6456311 C25.3280221,41.5821928 25.4518165,40.5235072 25.6632373,39.4805825 C24.8485048,39.5387004 24.1265933,40.0252444 23.76893,40.7572816 L23.76893,40.7572816 L23.76893,40.7330097 Z M28.7944444,36.5825243 C29.9777778,36.5242718 30.6790123,35.0242718 30.0313443,33.9126214 C29.6028121,34.7378641 28.6824417,35.4902913 28.7944444,36.5825243 L28.7944444,36.5825243 L28.7944444,36.5825243 Z M13.0556241,34.2864078 C13.2593476,34.6032197 13.3194711,34.9910309 13.2211934,35.3543689 C13.3397514,35.3058165 13.4727314,35.3058165 13.5912894,35.3543689 C13.5203133,35.6413017 13.4105528,35.9172893 13.2650206,36.1747573 C14.1464335,36.0970874 15.0278464,36.0194175 15.8995199,35.9320388 C16.3524005,34.0679612 13.73738,34.9126214 13.2650206,33.8349515 C13.2071227,33.989857 13.1387915,34.140686 13.0604938,34.2864078 L13.0604938,34.2864078 L13.0556241,34.2864078 Z M37.8082305,34.2038835 C38.4558985,33.7184466 39.2691358,34.6456311 39.8632373,34.1650485 C39.8705486,33.8400225 39.8981972,33.515768 39.9460219,33.1941748 C39.8194102,33.223301 39.868107,33.0825243 39.7414952,33.1116505 C39.4882716,33.2038835 39.3032236,33.7087379 38.957476,33.8495146 C38.4364198,33.5582524 37.8423182,33.3640777 37.3066529,33.0728155 C37.4332647,33.4951456 37.6670096,33.8106796 37.7936214,34.223301 L37.7936214,34.223301 L37.8082305,34.2038835 Z M6.96364883,34.9514563 C7.2266118,34.2524272 7.58696845,33.6553398 7.86941015,32.9805825 C7.50454012,32.8603412 7.13198299,32.7646567 6.7542524,32.6941748 C6.62277092,33.2621359 6.32085048,33.6650485 6.17962963,34.2135922 C6.66659808,34.3980583 6.78834019,34.8932039 6.7542524,35.5679612 C7.12901411,35.2803285 7.43782335,34.9162191 7.66001372,34.5 C7.44380189,34.6735697 7.21048609,34.8248293 6.96364883,34.9514563 L6.96364883,34.9514563 L6.96364883,34.9514563 Z M20.5549383,33.4320388 C20.4431976,33.9718188 20.3877131,34.5216647 20.389369,35.0728155 C20.574417,36.0679612 22.0109739,35.9563107 22.2398491,35.0339806 C22.3762003,34.4805825 22.1375857,33.7378641 22.2398491,33.0631068 C21.7587983,32.5701598 21.2498994,32.1050012 20.7156379,31.6699029 C20.7156379,32.2087379 20.6133745,32.7961165 20.5500686,33.4320388 L20.5500686,33.4320388 L20.5549383,33.4320388 Z M6.30624143,31.368932 C5.74857948,31.5952294 5.283675,32.0022378 4.98655693,32.5242718 C5.83388203,32.5728155 6.27215364,32.2184466 6.8808642,32.038835 C6.84661707,32.1986725 6.82544554,32.3610182 6.8175583,32.5242718 C7.16250326,32.3374134 7.48864643,32.1179591 7.7914952,31.868932 C7.28361436,31.7781051 6.7915626,31.6146037 6.33058985,31.3834951 L6.33058985,31.3834951 L6.30624143,31.368932 Z M8.8579561,31.6165049 C10.1386831,31.9805825 11.6336763,30.8203883 11.0006173,29.4029126 C10.279904,30.131068 8.93100137,30.2378641 8.8579561,31.6165049 L8.8579561,31.6165049 L8.8579561,31.6165049 Z M5.19108368,27.7961165 C4.29993141,27.4951456 3.44286694,26.4174757 2.26927298,26.9368932 C2.76041575,27.1482721 3.14622819,27.5468565 3.34060357,28.0436893 C2.90720165,28.4320388 2.2303155,28.7961165 2.30823045,29.5631068 C2.8315115,29.2818416 3.40299391,29.1007279 3.99314129,29.0291262 C3.992924,29.3660367 4.0929069,29.6954494 4.28045267,29.9757282 C4.50594677,29.8400324 4.71368309,29.6769749 4.89890261,29.4902913 C4.89890261,28.4514563 6.35980796,29.1019417 6.87599451,29.2427184 C6.95390947,28.6893204 7.08539095,28.1941748 7.1633059,27.6407767 C6.63251029,27.4805825 6.03353909,27.3980583 5.51735254,27.2330097 C5.66344307,26.8980583 5.92640604,26.6796117 6.09197531,26.368932 C5.89718793,26.315534 5.60500686,26.3398058 5.4345679,26.2864078 C5.59991299,26.8033569 5.5076301,27.3679392 5.18621399,27.8058252 L5.18621399,27.8058252 L5.19108368,27.7961165 Z M0,21.0242718 C0.185313681,20.5397081 0.605746353,20.1828237 1.11515775,20.0776699 C1.05672154,19.8106796 0.564883402,19.592233 0.374965706,19.3398058 C0.934979424,18.8543689 1.83587106,19.2378641 2.51762689,19.3398058 C2.77085048,18.8980583 2.59067215,18.2669903 2.18648834,18.1893204 C1.59725652,18.0776699 1.03237311,18.631068 0.618449931,18.7669903 C0.721438632,17.6703175 1.35127876,16.6914362 2.30823045,16.1407767 C2.12805213,15.6553398 1.59238683,15.538835 1.15411523,15.3203883 C1.73192086,14.7909079 2.55345937,14.6178106 3.29677641,14.868932 C3.43935051,14.5737298 3.61937922,14.2980102 3.8324417,14.0485437 C3.97635095,14.1491778 4.1015861,14.2740191 4.20253772,14.4174757 C3.90019957,14.7740914 3.72847932,15.2225834 3.71556927,15.6893204 C3.32599451,15.5048544 2.99972565,15.131068 2.39588477,15.2815534 C2.43484225,15.592233 3.02894376,15.868932 2.9218107,16.3009709 C2.86337449,16.5728155 2.28875171,16.7475728 2.02091907,16.9902913 C1.80186175,17.2297209 1.61372826,17.495541 1.46090535,17.7815534 C2.731893,16.9951456 3.73017833,18.961165 2.9851166,19.723301 C2.66371742,20.0485437 1.96248285,19.8300971 1.58264746,19.684466 C1.79689141,19.9785654 1.97661906,20.2961715 2.11831276,20.631068 C1.76274317,20.56451 1.39676321,20.5777765 1.04698217,20.6699029 C2.09883402,20.8737864 1.46090535,22.3300971 1.60699588,23.3009709 C2.0744856,23.0097087 2.43484225,22.6067961 2.88285322,22.3300971 C3.36982167,22.5970874 3.60356653,23.461165 3.36982167,24.1796117 C3.56460905,24.3786408 4.12462277,24.3009709 4.44115226,24.2621359 C4.40245677,24.4947834 4.38291288,24.7301959 4.38271605,24.9660194 C4.72846365,24.6893204 5.07908093,24.4223301 5.41508916,24.1407767 C5.278738,23.8009709 5.12290809,23.4757282 4.9622085,23.1699029 C5.12777778,22.5291262 5.27386831,21.868932 5.44917695,21.2281553 C6.05301783,22.6504854 7.74279835,20.6990291 7.71844993,19.5873786 C8.79465021,19.5873786 8.69238683,20.868932 7.96680384,21.2281553 C7.86454047,21.6601942 7.71358025,22.038835 7.59183813,22.461165 C8.13237311,22.6359223 8.75082305,22.7330097 9.32057613,22.868932 C9.00714139,23.374115 8.66404261,23.8603989 8.2930727,24.3252427 C8.78004115,24.1747573 9.34005487,23.723301 9.90006859,23.5048544 C9.74423868,24.4320388 9.55432099,25.3252427 9.41310014,26.2572816 C8.42029687,26.9012359 7.99463475,28.1361771 8.38072702,29.2524272 C8.97482853,29.1019417 9.15013717,28.538835 9.66145405,28.3058252 C9.8659808,28.3058252 9.90980796,28.5339806 10.1484225,28.592233 C10.5900374,28.6242434 11.033967,28.596483 11.468107,28.5097087 C11.5534194,29.0385388 11.6086972,29.5717506 11.6336763,30.1067961 C12.300823,30.0194175 12.8997942,29.8640777 13.5815501,29.7815534 C13.4985379,30.3102634 13.286128,30.8104411 12.9631001,31.2378641 C13.2187381,31.589646 13.3857572,31.9975557 13.4500686,32.4271845 C13.937037,32.7087379 14.5165295,32.9126214 15.018107,33.1650485 C15.2460207,32.7783443 15.435226,32.3702308 15.5829904,31.9466019 C16.0358711,32.223301 16.2744856,32.7135922 16.6981481,33.0145631 C16.9367627,32.2961165 17.2143347,31.6116505 17.3993827,30.8398058 C17.7840324,31.1453613 18.1049713,31.52301 18.3441015,31.9514563 C18.8895062,31.5097087 19.2547325,30.8834951 19.8050069,30.4320388 C20.9786008,30.4660194 22.303155,30.6067961 22.6050754,31.6213592 C22.7365569,32.0533981 22.6050754,32.4757282 22.8096022,32.815534 C23.0300107,33.0785517 23.391206,33.1772777 23.7153635,33.0631068 C24.6162551,32.8640777 25.2493141,32.1504854 25.8969822,31.6699029 C26.5689986,31.8737864 27.1582305,32.1553398 27.844856,32.368932 C27.4601509,33.2621359 26.5592593,34.0582524 26.7345679,35.2427184 C26.9986115,35.3999985 27.3242391,35.4145874 27.6013717,35.2815534 C28.2738497,35.0022369 28.8375989,34.5134879 29.2083676,33.8883495 C29.4974455,33.5197093 29.7456232,33.1209442 29.9485597,32.6990291 C30.0946502,32.1019417 29.9144719,31.5339806 30.0313443,30.9708738 C29.865775,30.9368932 29.5930727,31.2524272 29.3301097,31.1359223 C29.1207133,30.4951456 29.5833333,29.9029126 29.9875171,29.5339806 C30.391701,29.1650485 30.9906722,28.6990291 31.5506859,28.8349515 C31.7016461,29.2572816 31.3072016,29.5631068 31.1367627,29.9029126 C30.4403978,31.3106796 30.9322359,33.5582524 31.3851166,34.9126214 C31.6967764,34.4271845 31.779561,33.7427184 32.1691358,33.3543689 C32.3103567,33.8834951 32.5587106,34.3252427 32.7048011,34.8106796 C33.0813935,34.6255858 33.4400276,34.406207 33.7761317,34.1553398 C34.3604938,34.2475728 34.9058985,34.368932 35.4659122,34.4854369 C35.1663274,34.0815379 34.8410113,33.6972507 34.4919753,33.3349515 C34.8409078,33.1895346 35.1987352,33.0663102 35.5633059,32.9660194 L35.5633059,31.6601942 C36.5372428,31.7572816 37.3943073,31.9660194 38.3195473,32.1116505 C38.7480796,31.2184466 38.4072016,30.1165049 38.1978052,29.1990291 C38.6847737,29.3932039 39.0013032,30.092233 39.4736626,30.4271845 C39.9995885,30.3737864 40.3112483,29.9417476 40.7933471,29.9417476 C41.3631001,29.9417476 41.9133745,30.5 42.6048697,30.4757282 C42.551764,31.1327263 42.3081251,31.7601472 41.9036351,32.2815534 C41.8241074,32.1946677 41.7554315,32.0984979 41.6991084,31.9951456 C41.6991084,32.8009709 40.9686557,33.1699029 40.4183813,33.4951456 C40.515775,34.368932 40.1992455,34.7961165 39.5954047,34.8495146 C38.9915638,34.9029126 38.4705075,34.3640777 38.0273663,34.684466 C37.8179698,35.2815534 38.0273663,36.0873786 37.7790123,36.6553398 C35.8847051,36.2378641 35.7483539,38.1116505 34.5260631,38.3786408 C34.4927661,37.8141211 34.2928532,37.2720005 33.9514403,36.8203883 C33.7225652,37.3058252 33.6836077,37.9805825 33.4644719,38.4660194 C32.5392318,38.5 32.2324417,37.9126214 31.7308642,37.4951456 C31.3656379,37.6941748 31.0539781,37.9466019 30.7033608,38.1553398 C30.5303663,37.8687586 30.2896116,37.6287611 30.0021262,37.4563107 C29.4080247,38.5679612 28.1662551,38.6359223 27.2020576,39.5097087 C26.3575668,40.1820749 25.8461553,41.1857497 25.7995885,42.2621359 C25.6879938,43.8739926 26.0001959,45.4869837 26.7053498,46.9417476 C32.8508916,46.723301 38.2757202,47.3883495 43.5544582,48.2135922 C43.5544582,48.5873786 43.4278464,48.8300971 43.4278464,49.184466 C37.8910151,48.5097087 32.3444444,47.5728155 26.0722908,48.0582524 C18.8359396,48.5970874 11.5801097,49.3883495 4.53367627,49.907767 L3.95418381,49.907767 C3.98340192,49.538835 3.88113855,49.2961165 3.91035665,48.9368932 C9.75397805,48.4514563 15.5975995,48.0145631 21.3730453,47.4805825 C21.5386145,46.368932 22.132716,45.2427184 22.1960219,44.1553398 C22.1736889,43.6037001 22.1052766,43.0548752 21.9914952,42.5145631 C21.9184499,41.9223301 21.947668,41.3009709 21.8259259,40.7912621 C21.6270539,40.2365727 21.3793583,39.7005036 21.0857339,39.1893204 C20.5303698,38.1127541 20.181878,36.9421458 20.0582305,35.7378641 C19.6540466,35.8009709 19.2888203,35.907767 18.8651578,35.9417476 C18.383059,36.5048544 18.0178326,37.2184466 17.5308642,37.8640777 C17.7840878,37.9126214 18.0178326,37.961165 18.2710562,38.0291262 C18.2710562,38.2330097 18.1541838,38.3203883 18.1493141,38.5145631 C17.6268195,38.397661 17.0923712,38.3422662 16.5569273,38.3495146 C16.1430041,38.592233 16.2306584,39.3203883 15.9384774,39.7038835 C14.9645405,39.4708738 14.6382716,38.461165 13.9906036,37.7621359 C12.8510974,37.684466 12.0427298,38.2961165 11.1467078,38.5825243 C11.3545474,37.9296267 11.7055315,37.3310164 12.1742112,36.8300971 C12.0865569,36.7475728 11.9112483,37.092233 11.7602881,36.9563107 C11.7895062,36.7524272 11.6872428,36.6699029 11.7164609,36.4708738 C11.3171468,36.2864078 11.2294925,35.2864078 11.3074074,34.6262136 C10.8125773,34.7677954 10.2942971,34.8090614 9.78319616,34.7475728 C9.67963362,35.3731476 9.4256679,35.9644257 9.04300412,36.4708738 C8.39046639,36.2864078 8.34176955,35.5 8.01550069,35.0145631 C7.47983539,35.6165049 7.04156379,36.315534 6.20397805,36.6116505 C6.07736626,36.0242718 6.3451989,35.2718447 6.08223594,34.8058252 C5.9224435,34.7064948 5.73373444,34.6637413 5.54657064,34.684466 C5.62027632,34.0629892 5.81726308,33.4623365 6.1260631,32.9174757 C5.51554627,33.1466133 4.84227266,33.1466133 4.23175583,32.9174757 C4.46796408,32.0772714 5.05508955,31.3788268 5.8436214,31 C5.57578875,30.7038835 5.35665295,30.3834951 5.05960219,30.0970874 C4.70411523,30.3252427 4.29993141,30.5145631 3.94931413,30.7524272 C3.83506605,30.3751043 3.69681146,30.005423 3.53539095,29.6456311 C2.95411472,29.8327601 2.38900535,30.0665348 1.84561043,30.3446602 C1.50530137,29.4668332 1.83334822,28.4715698 2.62962963,27.9660194 C2.31957938,27.4962192 1.80064928,27.205013 1.23689986,27.184466 C1.9478738,25.7281553 3.8957476,26.2669903 4.94272977,27.0631068 C5.00076816,26.7788209 4.97540822,26.4838855 4.8696845,26.2135922 C4.53367627,26.038835 3.8957476,25.9757282 4.03696845,25.5 C3.94205688,25.5186228 3.84611636,25.5315907 3.74965706,25.538835 C3.8235297,25.3267316 3.87255209,25.1068247 3.8957476,24.8834951 C3.45483014,24.8268572 3.03220904,24.6726047 2.65884774,24.4320388 C2.93902755,24.0387738 3.01663986,23.5367801 2.86824417,23.0776699 C2.33257888,23.3252427 2.04526749,23.8203883 1.46577503,24.0242718 C0.808367627,23.5145631 1.17846365,22.2184466 1.13463649,21.3543689 C0.9739369,21.0679612 0.423662551,21.1650485 0,21.1504854 L0,21.0242718 L0,21.0242718 L0,21.0242718 Z" id="Shape"></path>
            <path d="M9.64197531,16.3446602 C9.71015089,16.3446602 9.71989026,16.3737864 9.72475995,16.4271845 C9.03326475,16.9854369 8.84821674,18.0728155 8.90178326,19.2572816 C8.62908093,19.5485437 8.11776406,19.3300971 7.83045267,19.1747573 C7.49444444,19.2378641 7.19252401,19.3300971 6.8808642,19.4223301 C6.69784148,19.6550894 6.60920285,19.9478897 6.63251029,20.2427184 C5.74135802,20.4029126 5.28360768,19.4563107 4.65541838,20.0776699 C4.29045323,19.6263844 3.97382541,19.1382937 3.71069959,18.6213592 C4.82585734,18.4951456 5.17160494,19.1359223 5.77057613,19.5242718 C5.85336077,18.9805825 5.61961591,18.5097087 5.72674897,18.0679612 C5.83388203,17.6262136 6.21371742,17.5825243 6.3451989,17.2864078 C7.45548697,16.9805825 8.56577503,16.684466 9.64197531,16.3446602 L9.64197531,16.3446602 L9.64197531,16.3446602 Z" id="Shape"></path>
            <path d="M16.2696159,0.0436893204 L16.3524005,0.0436893204 C16.9123358,0.337514584 17.3503389,0.818834124 17.5893004,1.40291262 C17.8717421,1.40291262 17.9642661,1.17961165 18.2467078,1.15533981 C18.6265432,1.72815534 18.6216735,2.91262136 18.4512346,3.58252427 C18.6314129,2.63106796 19.9949246,1.70873786 20.4526749,2.87864078 C20.6199475,2.41830414 20.9033841,2.00869715 21.2756516,1.68932039 C21.76262,2.17475728 22.3762003,2.74757282 22.2252401,3.74271845 C22.0579323,3.72282618 21.8941112,3.68036667 21.7382716,3.61650485 C21.754617,3.18687434 21.590483,2.76991294 21.2853909,2.46601942 C20.8276406,3.00970874 20.7497257,3.9223301 20.3358025,4.51941748 C20.204321,3.88349515 20.1361454,3.19417476 19.7270919,2.83495146 C19.1037723,3.01941748 19.030727,3.75242718 18.6995885,4.23300971 C18.3196124,4.3040255 17.9372991,4.121328 17.7548697,3.7815534 C18.0204033,3.18916518 18.0919663,2.52843981 17.9593964,1.89320388 C17.8040211,1.93534006 17.6525165,1.99055466 17.5065158,2.05825243 C17.1949556,1.75928843 16.9320796,1.41371108 16.7273663,1.03398058 C16.6835391,1.78640777 16.1381344,2.03398058 15.5342936,2.22330097 C15.4758573,2.44174757 15.9871742,2.6407767 15.9043896,2.88349515 C15.0575075,2.56675577 14.1268725,2.55132255 13.2698903,2.83980583 C13.2393195,2.65809149 13.1986766,2.47820438 13.1481481,2.30097087 C13.7072096,2.12900336 14.2930035,2.05991613 14.8768861,2.09708738 C15.1057613,1.61165049 15.850823,1.74271845 16.113786,1.32038835 C16.3231824,1.00485437 16.1722222,0.553398058 16.2793553,0.0436893204 L16.2793553,0.0436893204 L16.2696159,0.0436893204 Z" id="Shape"></path>
        </g>
        <g id="text-b" transform="translate(56.172840, 3.703704)" fill="#FFFFFF">
            <path d="M16.2716049,27.882716 L9.51851852,19.2407407 C8.97530864,18.537037 8.20987654,17.4259259 8.20987654,16.4691358 C8.31361495,15.567506 8.66628391,14.712551 9.22839506,14 L15.2222222,5.55555556 L23.7592593,5.55555556 L16.0185185,14.8148148 C15.1851852,15.8024691 15.0925926,16.2777778 15.0925926,16.4691358 C15.0925926,17.1975309 15.7962963,17.9691358 16.2716049,18.4753086 L24.9135802,27.9074074 L16.2716049,27.9074074 L16.2716049,27.882716 Z M0.308641975,5.55555556 L7.50617284,5.55555556 L7.50617284,27.882716 L0.308641975,27.882716 L0.308641975,5.55555556 L0.308641975,5.55555556 L0.308641975,5.55555556 Z" id="Shape"></path>
            <path d="M42.5246914,27.882716 L42.845679,14.8148148 C42.845679,14.4012346 42.845679,13.9814815 42.5246914,13.9814815 C42.3395062,13.9814815 42.1481481,14.3333333 41.6975309,15.0679012 L35.3580247,25.8703704 C34.7407407,26.9197531 33.6358025,28.1358025 30.5432099,28.1358025 C26.1481481,28.1358025 25.5740741,25.462963 25.5740741,22.7839506 L25.5740741,5.55555556 L32.9012346,5.55555556 L32.5802469,18.3333333 L32.5802469,18.7037037 C32.5802469,18.9876543 32.5802469,19.4691358 32.962963,19.4691358 C33.154321,19.4691358 33.3148148,19.1851852 33.5802469,18.6728395 L39.7530864,7.93209877 C41.154321,5.46296296 43.2592593,5.32098765 44.5679012,5.32098765 C49.6604938,5.32098765 49.8518519,9.02469136 49.8518519,10.8333333 L49.8518519,27.882716 L42.5246914,27.882716 L42.5246914,27.882716 Z" id="Shape"></path>
            <path d="M58.962963,4.11111111 L58.962963,0 L64.6358025,0 L64.6358025,4.11111111 L58.962963,4.11111111 L58.962963,4.11111111 Z M54.1234568,27.882716 L54.1234568,5.55555556 L61.3209877,5.55555556 L61.3209877,27.882716 L54.1234568,27.882716 L54.1234568,27.882716 Z M50.808642,4.11111111 L50.808642,0 L56.4753086,0 L56.4753086,4.11111111 L50.808642,4.11111111 L50.808642,4.11111111 Z" id="Shape"></path>
            <path d="M72.7901235,20.6790123 C72.7322355,21.1417124 72.8230329,21.6108322 73.0493827,22.0185185 C73.4448096,22.278088 73.9192358,22.3895891 74.3888889,22.3333333 L78.2098765,22.3333333 C79.5802469,22.3333333 79.9938272,22.0493827 80.117284,21.8888889 C80.3832157,21.5039991 80.5273103,21.048058 80.5308642,20.5802469 C80.5398452,20.2412237 80.4403663,19.9081857 80.2469136,19.6296296 C79.7692872,19.1309276 79.076384,18.8999599 78.3950617,19.0123457 L72.7839506,19.0123457 L72.7839506,20.6790123 L72.7839506,20.6790123 L72.7901235,20.6790123 Z M78.1419753,14.1481481 C78.7592593,14.1481481 79.4814815,14.1481481 79.8641975,13.5308642 C80.0127392,13.2119889 80.0886391,12.8641143 80.0864198,12.5123457 C80.0887546,12.1613507 79.9637455,11.8214137 79.7345679,11.5555556 C79.2735427,11.1980758 78.6904334,11.0362242 78.1111111,11.1049383 L74,11.1049383 C73.670723,11.0599926 73.3375761,11.1538998 73.0802469,11.3641975 C72.8347291,11.6175776 72.7266765,11.9739215 72.7901235,12.3209877 L72.7901235,14.1358025 L78.1419753,14.1358025 L78.1419753,14.1481481 Z M65.5925926,9.17283951 C65.5505008,8.28552645 65.8214123,7.41161848 66.3580247,6.7037037 C67.0030828,5.99332993 67.9110943,5.57836644 68.8703704,5.55555556 L80.9814815,5.55555556 C82.5740741,5.55555556 84.5493827,5.68518519 85.8271605,7.01851852 C87.1049383,8.35185185 87.2283951,10.3333333 87.2283951,11.7962963 C87.3501036,13.058068 86.948412,14.3144701 86.117284,15.2716049 C85.5634754,15.9384719 84.7547606,16.3417092 83.8888889,16.382716 L83.8888889,16.5123457 C84.8732898,16.5883361 85.8036668,16.9926588 86.5308642,17.6604938 C87.7098765,18.808642 87.7654321,20.2407407 87.7654321,21.6111111 C87.7654321,22.9814815 87.7962963,24.8333333 86.4320988,26.2962963 C84.9938272,27.8580247 83.345679,27.8580247 81.4259259,27.8580247 L69.7530864,27.8580247 C68.7592593,27.8580247 67.4259259,27.9197531 66.4382716,26.8024691 C65.8961355,26.0940476 65.6051299,25.2253741 65.6111111,24.3333333 L65.6111111,9.17901235 L65.6111111,9.17901235 L65.5925926,9.17283951 Z" id="Shape"></path>
            <path d="M89.9691358,22.3333333 L100,22.3333333 C101.401235,22.3333333 101.91358,22.2716049 102.265432,22.0802469 C102.739244,21.7657216 102.998627,21.2136397 102.938272,20.6481481 C102.985185,20.1236738 102.75018,19.6137128 102.320988,19.308642 C101.932099,19.0493827 101.333333,19.0246914 100.024691,19.0246914 L90.382716,19.0246914 L90.382716,14.1975309 L99.845679,14.1975309 C100.67284,14.1975309 101.660494,14.2283951 102.135802,13.7839506 C102.446767,13.4348785 102.59683,12.9712526 102.549383,12.5061728 C102.648199,12.0021741 102.394588,11.4949508 101.932099,11.2716049 C101.280635,11.1100651 100.607186,11.0558556 99.9382716,11.1111111 L90.1234568,11.1111111 L90.1234568,5.55555556 L102.469136,5.55555556 C104.54321,5.55555556 106.901235,5.55555556 108.425926,7.11728395 C109.604938,8.35185185 109.703704,10.1419753 109.703704,11.7037037 C109.703704,13.0740741 109.604938,14.4135802 108.469136,15.5 C107.913428,16.0212809 107.214982,16.3651315 106.462963,16.4876543 L106.462963,16.617284 C107.748842,16.5079086 108.985546,17.1370254 109.654321,18.2407407 C110.194347,19.3591341 110.424566,20.601886 110.320988,21.8395062 C110.320988,23.4320988 110.166667,25.6358025 108.41358,26.8765432 C106.759259,28.0555556 103.987654,27.8641975 102.32716,27.8641975 L89.9814815,27.8641975 L89.9814815,22.308642 L89.9814815,22.308642 L89.9691358,22.3333333 Z" id="Shape"></path>
            <path d="M115.467454,27.882716 C114.500698,27.9702585 113.535668,27.6976761 112.757577,27.117284 C111.739059,26.2530864 111.739059,25.3641975 111.739059,24.3148148 L111.739059,9.01851852 C111.661249,8.06847875 112.012189,7.13339369 112.695849,6.4691358 C113.450324,5.83148532 114.419186,5.50485301 115.405725,5.55555556 L131.455108,5.55555556 L131.455108,10.9753086 L120.405725,10.9753086 C120.010799,10.9550841 119.620236,11.0657437 119.294614,11.2901235 C119.023367,11.5829562 118.894684,11.9802926 118.942762,12.3765432 L118.942762,14.0679012 L131.109429,14.0679012 L131.109429,18.9135802 L118.942762,18.9135802 L118.942762,21.3333333 C118.915235,21.642751 119.031289,21.9476775 119.257577,22.1604938 C119.666095,22.4150218 120.151927,22.5156897 120.627948,22.4444444 L131.523009,22.4444444 L131.523009,27.8641975 L115.473627,27.8641975 L115.467454,27.882716 Z" id="Shape"></path>
            <path d="M140.882716,7.61728395 C141.808642,5.45061728 144.320988,5.32098765 145.691358,5.32098765 C147.061728,5.32098765 149.580247,5.45061728 150.5,7.61728395 L159.074074,27.882716 L151.425926,27.882716 L146.037037,13.1296296 C145.987891,12.9125599 145.863183,12.7200282 145.685185,12.5864198 C145.509119,12.7218207 145.384905,12.9135902 145.333333,13.1296296 L139.950617,27.882716 L132.308642,27.882716 L140.882716,7.61728395 L140.882716,7.61728395 L140.882716,7.61728395 Z" id="Shape"></path>
            <path d="M163.444444,27.882716 C162.477798,27.9690832 161.513181,27.6966172 160.734568,27.117284 C159.716049,26.2530864 159.716049,25.3641975 159.716049,24.3148148 L159.716049,9.01851852 C159.638239,8.06847875 159.989179,7.13339369 160.67284,6.4691358 C161.42573,5.83297579 162.392098,5.50644059 163.376543,5.55555556 L179.425926,5.55555556 L179.425926,10.9753086 L168.382716,10.9753086 C167.985763,10.9541733 167.592956,11.0648535 167.265432,11.2901235 C166.994185,11.5829562 166.865502,11.9802926 166.91358,12.3765432 L166.91358,14.0679012 L179.08642,14.0679012 L179.08642,18.9135802 L166.91358,18.9135802 L166.91358,21.3333333 C166.887617,21.6437537 167.00601,21.9488431 167.234568,22.1604938 C167.643289,22.4145138 168.128933,22.5151428 168.604938,22.4444444 L179.5,22.4444444 L179.5,27.8641975 L163.450617,27.8641975 L163.444444,27.882716 Z" id="Shape"></path>
            <polygon id="Shape" points="204.222222 27.882716 197.024691 27.882716 197.024691 19.0246914 188.925926 19.0246914 188.925926 27.882716 181.728395 27.882716 181.728395 5.58024691 188.925926 5.58024691 188.925926 13.4814815 197.024691 13.4814815 197.024691 5.58024691 204.222222 5.58024691 204.222222 27.882716"></polygon>
            <path d="M214.611111,20.8703704 C214.611111,22.4259259 215.117284,22.3333333 216.141975,22.3333333 L220.37037,22.3333333 C220.955025,22.3914155 221.541755,22.2452781 222.030864,21.9197531 C222.352633,21.5399927 222.502401,21.0437448 222.444444,20.5493827 C222.535014,20.0682881 222.352099,19.5765547 221.969136,19.2716049 C221.494459,18.9731839 220.934985,18.8387366 220.376543,18.8888889 L214.611111,18.8888889 L214.611111,20.8641975 L214.611111,20.8641975 L214.611111,20.8703704 Z M228.530864,11.1111111 L215.981481,11.1111111 C214.641975,11.1111111 214.611111,11.6234568 214.611111,12.4506173 L214.611111,14.0432099 L224.901235,14.0432099 C226.274522,13.9917009 227.605093,14.5257245 228.561728,15.5123457 C229.740741,16.8765432 229.839506,19.2716049 229.839506,20.7716049 C229.839506,22.6790123 229.679012,24.7530864 228.604938,26.154321 C227.733936,27.2681399 226.388939,27.906327 224.975309,27.8765432 L210.530864,27.8765432 C209.69274,27.9136164 208.877515,27.5973247 208.283705,27.004689 C207.689896,26.4120533 207.371992,25.5974551 207.407407,24.7592593 L207.407407,9.14814815 C207.407407,5.77160494 210.08642,5.55555556 210.882716,5.55555556 L228.530864,5.55555556 L228.530864,11.1111111 L228.530864,11.1111111 L228.530864,11.1111111 Z" id="Shape"></path>
            <polygon id="Shape" points="234.876543 27.882716 238.444444 21.537037 229.524691 5.58024691 237.549383 5.58024691 242.203704 15.0740741 246.882716 5.58024691 254.722222 5.58024691 242.709877 27.882716 234.876543 27.882716"></polygon>
            <path d="M260.018519,22.3333333 L267.851852,22.3333333 L264.283951,12.654321 C264.265439,12.4176352 264.134602,12.2041636 263.932099,12.0802469 C263.731739,12.2062949 263.60163,12.4185775 263.580247,12.654321 L260.012346,22.3395062 L260.012346,22.3395062 L260.018519,22.3333333 Z M258.783951,7.83950617 C259.228395,6.72222222 260.154321,5.32098765 263.91358,5.32098765 C267.67284,5.32098765 268.598765,6.72222222 269.04321,7.83950617 L275.030864,22.3333333 L277.259259,22.3333333 L277.259259,27.8888889 L250.580247,27.8888889 L250.580247,22.3333333 L252.777778,22.3333333 L258.796296,7.83950617 L258.796296,7.83950617 L258.783951,7.83950617 Z" id="Shape"></path>
        </g>
        <g id="text-s" transform="translate(55.555556, 35.185185)" fill="#FFFFFF">
            <polygon id="Shape" points="1.18518519 0.833333333 1.18518519 4.88271605 1.21604938 4.88271605 5.28395062 0.833333333 6.34567901 0.833333333 2.04320988 5.02469136 6.82716049 9.69135802 5.64814815 9.69135802 1.21604938 5.22222222 1.18518519 5.22222222 1.18518519 9.69135802 0.345679012 9.69135802 0.345679012 0.833333333 1.18518519 0.833333333"></polygon>
            <path d="M5.69135802,9.58641975 L6.56790123,9.58641975 L1.88888889,5.01851852 L6.08641975,0.932098765 L5.32716049,0.932098765 L1.2345679,4.98765432 L1.04320988,4.98765432 L1.04320988,0.938271605 L0.425925926,0.938271605 L0.425925926,9.58024691 L1.04320988,9.58024691 L1.04320988,5.11728395 L1.2345679,5.11728395 L1.2345679,5.14814815 L5.63580247,9.58641975 L5.63580247,9.58641975 L5.69135802,9.58641975 Z M7.08641975,9.7962963 L5.60493827,9.7962963 L5.60493827,9.7654321 L1.31481481,5.44444444 L1.31481481,9.80246914 L0.265432099,9.80246914 L0.265432099,0.728395062 L1.31481481,0.728395062 L1.31481481,4.66666667 L5.2654321,0.728395062 L6.62962963,0.728395062 L2.21604938,5.04938272 L7.11111111,9.82716049 L7.11111111,9.82716049 L7.08641975,9.7962963 Z" id="Shape"></path>
            <path d="M17.2345679,9.07407407 C18.7777778,9.07407407 20.3209877,7.93209877 20.3209877,5.27160494 C20.3209877,2.61111111 18.7530864,1.45061728 17.2345679,1.45061728 C15.7160494,1.45061728 14.1481481,2.61728395 14.1481481,5.27160494 C14.1481481,7.92592593 15.7222222,9.07407407 17.2345679,9.07407407 L17.2345679,9.07407407 L17.2345679,9.07407407 Z M17.2345679,0.728395062 C19.9444444,0.728395062 21.2469136,2.89506173 21.2469136,5.27160494 C21.2469136,8.19753086 19.4876543,9.79012346 17.2345679,9.79012346 C14.9814815,9.79012346 13.2222222,8.19753086 13.2222222,5.27160494 C13.2222222,2.89506173 14.5308642,0.728395062 17.2345679,0.728395062 L17.2345679,0.728395062 L17.2345679,0.728395062 Z" id="Shape"></path>
            <path d="M17.2345679,1.55555556 C15.7407407,1.55555556 14.2283951,2.70987654 14.2283951,5.25925926 C14.2283951,7.98765432 15.8518519,8.96296296 17.2345679,8.96296296 C18.617284,8.96296296 20.2469136,8 20.2469136,5.25925926 C20.2469136,2.69135802 18.7345679,1.55555556 17.2345679,1.55555556 L17.2345679,1.55555556 L17.2345679,1.55555556 Z M17.2345679,9.17901235 C15.6296296,9.17901235 14.0123457,7.94444444 14.0123457,5.27160494 C14.0123457,2.59876543 15.6296296,1.34567901 17.2345679,1.34567901 C18.8395062,1.34567901 20.4567901,2.58024691 20.4567901,5.27160494 C20.4567901,7.96296296 18.8395062,9.17901235 17.2407407,9.17901235 L17.2407407,9.17901235 L17.2345679,9.17901235 Z M17.2345679,0.833333333 C14.3518519,0.833333333 13.3271605,3.22222222 13.3271605,5.27160494 C13.3271605,7.95679012 14.8580247,9.68518519 17.2345679,9.68518519 C19.6111111,9.68518519 21.1419753,7.95061728 21.1419753,5.27160494 C21.1419753,3.22222222 20.117284,0.833333333 17.2345679,0.833333333 L17.2345679,0.833333333 L17.2345679,0.833333333 Z M17.2345679,9.90123457 C14.7345679,9.90123457 13.1111111,8.08024691 13.1111111,5.27160494 C13.1111111,2.95679012 14.3888889,0.62345679 17.2283951,0.62345679 C20.0679012,0.62345679 21.345679,2.95679012 21.345679,5.27160494 C21.345679,8.08024691 19.7283951,9.90123457 17.2283951,9.90123457 L17.2283951,9.90123457 L17.2345679,9.90123457 Z" id="Shape"></path>
            <polygon id="Shape" points="33.3333333 8.89506173 33.7037037 7.72222222 36.654321 0.833333333 37.9691358 0.833333333 37.9691358 9.69135802 37.1358025 9.69135802 37.1358025 2.83333333 37.1604938 1.62962963 37.1111111 1.62962963 36.6790123 2.79012346 33.7407407 9.69135802 32.8765432 9.69135802 29.9444444 2.79012346 29.5123457 1.62962963 29.462963 1.62962963 29.4876543 2.83333333 29.4876543 9.69135802 28.654321 9.69135802 28.654321 0.833333333 29.9691358 0.833333333 32.9197531 7.72222222 33.2901235 8.89506173 33.3333333 8.89506173"></polygon>
            <path d="M37.2407407,9.58641975 L37.8580247,9.58641975 L37.8580247,0.944444444 L36.7098765,0.944444444 L33.7901235,7.7654321 L33.4012346,9 L33.2098765,9 L32.8209877,7.7654321 L29.9012346,0.975308642 L28.7592593,0.975308642 L28.7592593,9.61728395 L29.3765432,9.61728395 L29.3765432,2.83333333 L29.3765432,1.52469136 L29.6111111,1.52469136 L30.0679012,2.75925926 L32.9753086,9.59259259 L33.6975309,9.59259259 L36.6049383,2.75308642 L37.0617284,1.51851852 L37.2962963,1.51851852 L37.2962963,2.82716049 L37.2962963,9.58641975 L37.2962963,9.58641975 L37.2407407,9.58641975 Z M38.0740741,9.7962963 L37.037037,9.7962963 L37.037037,2.83333333 L37.037037,2.11111111 L36.7654321,2.83333333 L33.8024691,9.80246914 L32.8024691,9.80246914 L29.8395062,2.83950617 L29.5740741,2.11111111 L29.5740741,2.83333333 L29.5740741,9.7962963 L28.5308642,9.7962963 L28.5308642,0.728395062 L30.0185185,0.728395062 L32.9938272,7.67901235 L33.3333333,8.64197531 L33.6234568,7.7037037 L36.6049383,0.740740741 L38.0987654,0.740740741 L38.0987654,9.81481481 L38.0987654,9.81481481 L38.0740741,9.7962963 Z" id="Shape"></path>
            <path d="M46,0.833333333 L48.2777778,5.55555556 L48.7345679,6.66666667 L48.7654321,6.66666667 L49.154321,5.59876543 L51.1296296,0.839506173 L52.0432099,0.839506173 L48.9012346,8.2962963 C48.5740741,9.06790123 48.2839506,9.80246914 47.2037037,9.80246914 C46.8988518,9.80753754 46.5956028,9.75734459 46.308642,9.65432099 L46.345679,8.94444444 C46.5793092,9.05208917 46.8357607,9.10083613 47.0925926,9.08641975 C47.5617284,9.08641975 47.7901235,8.78395062 48.0679012,8.08641975 L48.2839506,7.55555556 L45.0617284,0.833333333 L46,0.833333333 L46,0.833333333 Z" id="Shape"></path>
            <path d="M46.4259259,9.56790123 C46.6810106,9.65038563 46.9480036,9.69001741 47.2160494,9.68518519 C48.2037037,9.68518519 48.4506173,9.06790123 48.7901235,8.30864198 L48.7901235,8.24074074 L51.8765432,0.932098765 L51.2345679,0.932098765 L49.2839506,5.62962963 L48.845679,6.79012346 L48.6666667,6.79012346 L48.1790123,5.55555556 L45.9320988,0.913580247 L45.2283951,0.913580247 L48.4074074,7.51234568 L48.1728395,8.08641975 C47.8950617,8.77777778 47.6419753,9.15432099 47.0987654,9.15432099 C46.8892472,9.15860612 46.6805216,9.12729727 46.4814815,9.0617284 L46.4814815,9.54320988 L46.4814815,9.54320988 L46.4259259,9.56790123 Z M47.2098765,9.87654321 C46.8899926,9.88015745 46.5721007,9.8257812 46.2716049,9.71604938 L46.2037037,9.71604938 L46.2530864,8.77160494 L46.3950617,8.84567901 C46.6142397,8.94239536 46.8535334,8.98474823 47.0925926,8.9691358 C47.4814815,8.9691358 47.7098765,8.75308642 47.9753086,8.03703704 L48.1728395,7.54938272 L44.8888889,0.759259259 L46.0617284,0.759259259 L48.3703704,5.52469136 L48.7654321,6.41358025 L49.0617284,5.55555556 L51.0679012,0.728395062 L52.2098765,0.728395062 L48.9814815,8.40123457 C48.6728395,9.13580247 48.3641975,9.90123457 47.2160494,9.90123457 L47.2160494,9.90123457 L47.2098765,9.87654321 Z" id="Shape"></path>
            <polygon id="Shape" points="59.9753086 0.833333333 59.9753086 4.74691358 64.5864198 4.74691358 64.5864198 0.833333333 65.4197531 0.833333333 65.4197531 9.69135802 64.5864198 9.69135802 64.5864198 5.46296296 59.9753086 5.46296296 59.9753086 9.69135802 59.1419753 9.69135802 59.1419753 0.833333333 59.9753086 0.833333333"></polygon>
            <path d="M64.691358,9.58641975 L65.308642,9.58641975 L65.308642,0.944444444 L64.691358,0.944444444 L64.691358,4.85802469 L59.8765432,4.85802469 L59.8765432,0.938271605 L59.2592593,0.938271605 L59.2592593,9.58024691 L59.8765432,9.58024691 L59.8765432,5.35802469 L64.6975309,5.35802469 L64.6975309,9.58641975 L64.6975309,9.58641975 L64.691358,9.58641975 Z M65.5246914,9.7962963 L64.4814815,9.7962963 L64.4814815,5.55555556 L60.0802469,5.55555556 L60.0802469,9.78395062 L59.037037,9.78395062 L59.037037,0.728395062 L60.0802469,0.728395062 L60.0802469,4.64197531 L64.4814815,4.64197531 L64.4814815,0.728395062 L65.5246914,0.728395062 L65.5246914,9.80246914 L65.5246914,9.80246914 L65.5246914,9.7962963 Z" id="Shape"></path>
            <path d="M76.3580247,1.65432099 L76.0802469,2.4691358 L74.4753086,6.50617284 L78.4382716,6.50617284 L76.7098765,2.4691358 L76.3950617,1.63580247 L76.3580247,1.63580247 L76.3580247,1.65432099 Z M76.9259259,0.833333333 L80.6296296,9.69135802 L79.7345679,9.69135802 L78.7098765,7.22222222 L74.1790123,7.22222222 L73.191358,9.69135802 L72.2962963,9.69135802 L75.8148148,0.833333333 L76.9074074,0.833333333 L76.9259259,0.833333333 Z" id="Shape"></path>
            <path d="M74.6296296,6.42592593 L78.2777778,6.42592593 L76.617284,2.5308642 L76.382716,1.91358025 L76.1790123,2.5308642 L74.6234568,6.43209877 L74.6234568,6.43209877 L74.6296296,6.42592593 Z M78.5925926,6.63580247 L74.3148148,6.63580247 L75.9814815,2.4691358 L76.2839506,1.56790123 L76.4691358,1.56790123 L76.808642,2.4691358 L78.5925926,6.65432099 L78.5925926,6.65432099 L78.5925926,6.63580247 Z M79.8271605,9.58641975 L80.4938272,9.58641975 L76.8518519,0.944444444 L75.9259259,0.944444444 L72.4876543,9.58641975 L73.1604938,9.58641975 L74.1481481,7.11728395 L78.8271605,7.11728395 L79.8518519,9.58641975 L79.8518519,9.58641975 L79.8271605,9.58641975 Z M80.8148148,9.7962963 L79.691358,9.7962963 L78.6666667,7.32716049 L74.2777778,7.32716049 L73.2901235,9.7962963 L72.1604938,9.7962963 L75.7654321,0.722222222 L77,0.722222222 L80.8209877,9.7962963 L80.8209877,9.7962963 L80.8148148,9.7962963 Z" id="Shape"></path>
            <path d="M93.7407407,0.833333333 L93.7407407,9.69135802 L92.9074074,9.69135802 L92.9074074,1.55555556 L89.5061728,1.55555556 L89.5061728,3.89506173 C89.5061728,6.90740741 89.5432099,9.79012346 87.4259259,9.79012346 C87.2171712,9.78981716 87.009455,9.76073689 86.808642,9.7037037 L86.8641975,9.00617284 C87.0302768,9.04451908 87.1999429,9.06521007 87.3703704,9.06790123 C88.9012346,9.06790123 88.6728395,5.32098765 88.6728395,3.85185185 L88.6728395,0.827160494 L93.7530864,0.827160494 L93.7407407,0.833333333 Z" id="Shape"></path>
            <path d="M86.9135802,9.62345679 C87.0807866,9.66775152 87.2529538,9.69056886 87.4259259,9.69135802 C88.3148148,9.69135802 88.8641975,9.15432099 89.1419753,8.00617284 C89.3711946,6.70049502 89.4581226,5.37380704 89.4012346,4.04938272 L89.4012346,1.44444444 L93.0185185,1.44444444 L93.0185185,9.58641975 L93.6358025,9.58641975 L93.6358025,0.944444444 L88.7654321,0.944444444 L88.7654321,3.86419753 L88.7654321,4.38271605 C88.7654321,5.77160494 88.8209877,8.08641975 88.0308642,8.89506173 C87.8545471,9.08173857 87.6086267,9.18681366 87.3518519,9.18518519 C87.213118,9.1809537 87.0748841,9.16651136 86.9382716,9.14197531 L86.9012346,9.62962963 L86.9012346,9.62962963 L86.9135802,9.62345679 Z M87.4259259,9.87654321 C87.2066567,9.87549403 86.9885701,9.84433881 86.7777778,9.78395062 L86.691358,9.78395062 L86.7592593,8.87654321 L86.882716,8.87654321 C87.0405098,8.91444635 87.2019455,8.93514323 87.3641975,8.9382716 C87.5655358,8.94087468 87.7585073,8.85785206 87.8950617,8.70987654 C88.617284,7.98148148 88.5864198,5.70987654 88.5679012,4.35185185 L88.5679012,3.83333333 L88.5679012,0.728395062 L93.8271605,0.728395062 L93.8271605,9.80246914 L92.7839506,9.80246914 L92.7839506,1.66049383 L89.5864198,1.66049383 L89.5864198,4.05555556 C89.6443632,5.39638465 89.5574402,6.73955165 89.3271605,8.0617284 C89.0246914,9.2962963 88.3950617,9.91358025 87.4074074,9.91358025 L87.4074074,9.91358025 L87.4259259,9.87654321 Z" id="Shape"></path>
            <path d="M102.802469,8.9691358 L104.401235,8.9691358 C105.858025,8.9691358 106.487654,8.04320988 106.487654,7.08641975 C106.487654,5.31481481 104.932099,5.18518519 104.209877,5.18518519 L102.802469,5.18518519 L102.802469,8.9691358 L102.802469,8.9691358 L102.802469,8.9691358 Z M102.802469,0.833333333 L102.802469,4.46296296 L104.222222,4.46296296 C104.753086,4.46296296 107.388889,4.46296296 107.388889,7.0617284 C107.389459,7.77771788 107.098051,8.46298287 106.581965,8.95926487 C106.065878,9.45554686 105.36974,9.71993061 104.654321,9.69135802 L101.969136,9.69135802 L101.969136,0.833333333 L102.802469,0.833333333 L102.802469,0.833333333 Z" id="Shape"></path>
            <path d="M102.907407,8.86419753 L104.395062,8.86419753 C104.90258,8.92865129 105.4131,8.76977832 105.794424,8.42871905 C106.175747,8.08765978 106.39037,7.59795688 106.382716,7.08641975 C106.382716,5.89506173 105.648148,5.2962963 104.209877,5.2962963 L102.91358,5.2962963 L102.91358,8.87037037 L102.91358,8.87037037 L102.907407,8.86419753 Z M104.395062,9.08024691 L102.697531,9.08024691 L102.697531,5.08024691 L104.209877,5.08024691 C106.179012,5.08024691 106.592593,6.17283951 106.592593,7.08641975 C106.592593,8 106.018519,9.08024691 104.401235,9.08024691 L104.401235,9.08024691 L104.395062,9.08024691 Z M102.067901,9.59259259 L104.648148,9.59259259 C105.335728,9.62119669 106.005188,9.36788513 106.501605,8.89127799 C106.998023,8.41467084 107.278373,7.75607569 107.277778,7.06790123 C107.277778,4.89506173 105.364198,4.59876543 104.191358,4.59876543 L102.666667,4.59876543 L102.666667,0.938271605 L102.049383,0.938271605 L102.049383,9.58024691 L102.049383,9.58024691 L102.067901,9.59259259 Z M104.648148,9.80246914 L101.851852,9.80246914 L101.851852,0.728395062 L102.895062,0.728395062 L102.895062,4.35802469 L104.209877,4.35802469 C106.320988,4.35802469 107.481481,5.31481481 107.481481,7.0617284 C107.483783,7.80608359 107.181865,8.51906354 106.64571,9.0354042 C106.109555,9.55174486 105.385716,9.82661311 104.641975,9.7962963 L104.641975,9.7962963 L104.648148,9.80246914 Z" id="Shape"></path>
            <polygon id="Shape" points="115.944444 0.833333333 115.944444 4.74691358 120.555556 4.74691358 120.555556 0.833333333 121.388889 0.833333333 121.388889 9.69135802 120.555556 9.69135802 120.555556 5.46296296 115.944444 5.46296296 115.944444 9.69135802 115.111111 9.69135802 115.111111 0.833333333 115.944444 0.833333333"></polygon>
            <path d="M120.660494,9.58641975 L121.277778,9.58641975 L121.277778,0.944444444 L120.660494,0.944444444 L120.660494,4.85802469 L115.839506,4.85802469 L115.839506,0.938271605 L115.222222,0.938271605 L115.222222,9.58024691 L115.839506,9.58024691 L115.839506,5.35802469 L120.660494,5.35802469 L120.660494,9.58641975 L120.660494,9.58641975 L120.660494,9.58641975 Z M121.493827,9.7962963 L120.450617,9.7962963 L120.450617,5.55555556 L116.049383,5.55555556 L116.049383,9.78395062 L115,9.78395062 L115,0.728395062 L116.049383,0.728395062 L116.049383,4.64197531 L120.444444,4.64197531 L120.444444,0.728395062 L121.487654,0.728395062 L121.487654,9.80246914 L121.487654,9.80246914 L121.493827,9.7962963 Z" id="Shape"></path>
            <polygon id="Shape" points="133.925926 0.833333333 133.925926 1.55555556 130.45679 1.55555556 130.45679 4.75308642 133.759259 4.75308642 133.759259 5.48148148 130.45679 5.48148148 130.45679 8.9691358 134.166667 8.9691358 134.166667 9.69135802 129.623457 9.69135802 129.623457 0.833333333 133.925926 0.833333333"></polygon>
            <path d="M129.728395,9.58641975 L134.049383,9.58641975 L134.049383,9.08024691 L130.345679,9.08024691 L130.345679,5.37654321 L133.654321,5.37654321 L133.654321,4.86419753 L130.345679,4.86419753 L130.345679,1.44444444 L133.814815,1.44444444 L133.814815,0.938271605 L129.722222,0.938271605 L129.722222,9.58024691 L129.722222,9.58024691 L129.728395,9.58641975 Z M134.271605,9.7962963 L129.518519,9.7962963 L129.518519,0.728395062 L134.030864,0.728395062 L134.030864,1.66049383 L130.561728,1.66049383 L130.561728,4.65432099 L133.864198,4.65432099 L133.864198,5.55555556 L130.561728,5.55555556 L130.561728,8.83950617 L134.265432,8.83950617 L134.265432,9.77160494 L134.265432,9.77160494 L134.271605,9.7962963 Z" id="Shape"></path>
            <path d="M154.358025,9.07407407 C155.901235,9.07407407 157.444444,7.93209877 157.444444,5.27160494 C157.444444,2.61111111 155.87037,1.45061728 154.358025,1.45061728 C152.845679,1.45061728 151.271605,2.61728395 151.271605,5.27160494 C151.271605,7.92592593 152.839506,9.07407407 154.358025,9.07407407 L154.358025,9.07407407 L154.358025,9.07407407 Z M154.358025,0.728395062 C157.067901,0.728395062 158.37037,2.89506173 158.37037,5.27160494 C158.37037,8.19753086 156.611111,9.79012346 154.358025,9.79012346 C152.104938,9.79012346 150.345679,8.19753086 150.345679,5.27160494 C150.345679,2.89506173 151.654321,0.728395062 154.358025,0.728395062 L154.358025,0.728395062 L154.358025,0.728395062 Z" id="Shape"></path>
            <path d="M154.358025,1.55555556 C152.864198,1.55555556 151.351852,2.70987654 151.351852,5.25925926 C151.351852,7.98765432 152.969136,8.96296296 154.358025,8.96296296 C155.746914,8.96296296 157.364198,8 157.364198,5.25925926 C157.364198,2.69135802 155.851852,1.55555556 154.358025,1.55555556 L154.358025,1.55555556 L154.358025,1.55555556 Z M154.358025,9.17901235 C152.753086,9.17901235 151.135802,7.94444444 151.135802,5.27160494 C151.135802,2.59876543 152.753086,1.34567901 154.358025,1.34567901 C155.962963,1.34567901 157.580247,2.58024691 157.580247,5.27160494 C157.580247,7.96296296 155.962963,9.17901235 154.358025,9.17901235 L154.358025,9.17901235 L154.358025,9.17901235 Z M154.358025,0.833333333 C151.475309,0.833333333 150.450617,3.22222222 150.450617,5.27160494 C150.450617,7.95679012 151.981481,9.68518519 154.358025,9.68518519 C156.734568,9.68518519 158.265432,7.95061728 158.265432,5.27160494 C158.265432,3.22222222 157.240741,0.833333333 154.358025,0.833333333 L154.358025,0.833333333 L154.358025,0.833333333 Z M154.358025,9.90123457 C151.888889,9.90123457 150.240741,8.08024691 150.240741,5.27160494 C150.240741,2.95679012 151.518519,0.62345679 154.358025,0.62345679 C157.197531,0.62345679 158.475309,2.95679012 158.475309,5.27160494 C158.475309,8.08024691 156.858025,9.90123457 154.358025,9.90123457 L154.358025,9.90123457 L154.358025,9.90123457 Z" id="Shape"></path>
            <path d="M166.611111,8.9691358 L167.901235,8.9691358 C169.753086,8.9691358 170.117284,7.9691358 170.117284,7.18518519 C170.117284,6.40123457 169.685185,5.42592593 167.91358,5.42592593 L166.611111,5.42592593 L166.611111,8.9691358 L166.611111,8.9691358 L166.611111,8.9691358 Z M170.512346,0.833333333 L170.512346,1.55555556 L166.611111,1.55555556 L166.611111,4.70987654 L168.12963,4.70987654 C170.728395,4.70987654 171.018519,6.4691358 171.018519,7.17901235 C171.018519,8.7962963 169.839506,9.68518519 168.067901,9.68518519 L165.777778,9.68518519 L165.777778,0.833333333 L170.518519,0.833333333 L170.512346,0.833333333 Z" id="Shape"></path>
            <path d="M166.722222,8.86419753 L167.901235,8.86419753 C169.641975,8.86419753 170.012346,7.95061728 170.012346,7.18518519 C170.012346,6.10493827 169.290123,5.5308642 167.91358,5.5308642 L166.716049,5.5308642 L166.716049,8.86419753 L166.716049,8.86419753 L166.722222,8.86419753 Z M167.901235,9.08024691 L166.506173,9.08024691 L166.506173,5.32098765 L167.901235,5.32098765 C169.91358,5.32098765 170.209877,6.48765432 170.209877,7.17283951 C170.209877,7.85802469 169.907407,9.0617284 167.888889,9.0617284 L167.888889,9.0617284 L167.901235,9.08024691 Z M165.882716,9.59259259 L168.067901,9.59259259 C169.845679,9.59259259 170.91358,8.69135802 170.91358,7.19135802 C170.91358,6.47530864 170.641975,4.81481481 168.12963,4.81481481 L166.506173,4.81481481 L166.506173,1.44444444 L170.407407,1.44444444 L170.407407,0.938271605 L165.882716,0.938271605 L165.882716,9.58024691 L165.882716,9.58024691 L165.882716,9.59259259 Z M168.067901,9.80246914 L165.666667,9.80246914 L165.666667,0.728395062 L170.604938,0.728395062 L170.604938,1.66049383 L166.703704,1.66049383 L166.703704,4.60493827 L168.117284,4.60493827 C170.895062,4.60493827 171.111111,6.58641975 171.111111,7.19135802 C171.111111,8.80246914 169.938272,9.80246914 168.055556,9.80246914 L168.055556,9.80246914 L168.067901,9.80246914 Z" id="Shape"></path>
            <path d="M193.123457,9.42592593 C192.326744,9.68529639 191.49199,9.80842274 190.654321,9.79012346 C187.62963,9.79012346 186.450617,7.42592593 186.450617,5.40123457 C186.450617,3.47530864 187.259259,0.728395062 190.771605,0.728395062 C191.544235,0.693880304 192.315626,0.819993228 193.037037,1.09876543 L192.919753,1.85185185 C192.26257,1.54931968 191.544115,1.40351568 190.820988,1.42592593 C188.964151,1.387992 187.426548,2.85934227 187.382716,4.71604938 L191.746914,4.71604938 L191.746914,5.4382716 L187.358025,5.4382716 C187.358025,7.29012346 188.592593,9.04938272 190.790123,9.04938272 C191.591132,9.07477116 192.387869,8.9230118 193.123457,8.60493827 L193.123457,9.40740741 L193.123457,9.40740741 L193.123457,9.42592593 Z" id="Shape"></path>
            <path d="M190.740741,0.833333333 C186.839506,0.833333333 186.54321,4.32716049 186.54321,5.40123457 C186.54321,7.53703704 187.808642,9.69135802 190.641975,9.69135802 C191.444855,9.70797118 192.245186,9.59542461 193.012346,9.35802469 L193.012346,8.79012346 C192.306441,9.07247962 191.550093,9.20694139 190.790123,9.18518519 C188.481481,9.18518519 187.265432,7.33333333 187.253086,5.48148148 L187.253086,5.35802469 L191.648148,5.35802469 L191.648148,4.84567901 L187.271605,4.84567901 L187.271605,4.72839506 C187.32544,2.81911178 188.905027,1.30832189 190.814815,1.33950617 C191.504849,1.31911795 192.191184,1.44754254 192.82716,1.71604938 L192.888889,1.15432099 C192.202106,0.90156001 191.471827,0.788240805 190.740741,0.820987654 L190.740741,0.820987654 L190.740741,0.833333333 Z M190.641975,9.87654321 C187.660494,9.87654321 186.320988,7.61728395 186.320988,5.37654321 C186.320988,4.25308642 186.635802,0.598765432 190.728395,0.598765432 C191.513663,0.563757647 192.297658,0.691971372 193.030864,0.975308642 L193.104938,0.975308642 L192.993827,1.98765432 L192.864198,1.92592593 C192.218838,1.62791623 191.512973,1.48420717 190.802469,1.50617284 C189.045357,1.47671371 187.577657,2.83821671 187.475309,4.59259259 L191.833333,4.59259259 L191.833333,5.52469136 L187.444444,5.52469136 C187.424483,6.41930714 187.766391,7.28412188 188.392714,7.92322699 C189.019037,8.5623321 189.876768,8.92163902 190.771605,8.91975309 C191.555384,8.9447873 192.335089,8.79727552 193.055556,8.48765432 L193.197531,8.42592593 L193.209877,9.5 L193.135802,9.5 C192.325691,9.76676061 191.476178,9.8940832 190.623457,9.87654321 L190.623457,9.87654321 L190.641975,9.87654321 Z" id="Shape"></path>
            <path d="M201.895062,1.55555556 L201.895062,3.36419753 C201.895062,5.29012346 201.95679,6.93209877 200.771605,8.9691358 L205.290123,8.9691358 L205.290123,1.5617284 L201.895062,1.5617284 L201.895062,1.55555556 Z M206.123457,0.833333333 L206.123457,8.9691358 L207.148148,8.9691358 L207.148148,11.617284 L206.314815,11.617284 L206.314815,9.69135802 L199.907407,9.69135802 L199.907407,11.617284 L199.074074,11.617284 L199.074074,8.9691358 L199.820988,8.9691358 C201.098765,7.0617284 201.055556,5.52469136 201.055556,3.25925926 L201.055556,0.833333333 L206.117284,0.833333333 L206.123457,0.833333333 Z" id="Shape"></path>
            <path d="M200.950617,8.86419753 L205.185185,8.86419753 L205.185185,1.66049383 L202,1.66049383 L202,3.64197531 C202,5.42592593 202,6.97530864 200.950617,8.86419753 L200.950617,8.86419753 L200.950617,8.86419753 Z M205.395062,9.08024691 L200.58642,9.08024691 L200.679012,8.91975309 C201.796296,7.00617284 201.796296,5.45061728 201.790123,3.64197531 L201.790123,1.44444444 L205.395062,1.44444444 L205.395062,9.08024691 L205.395062,9.08024691 L205.395062,9.08024691 Z M206.419753,11.5123457 L207.037037,11.5123457 L207.037037,9.08024691 L206.012346,9.08024691 L206.012346,0.938271605 L201.154321,0.938271605 L201.154321,3.45679012 C201.154321,5.59876543 201.154321,7.16049383 199.919753,9.01234568 L199.888889,9.0617284 L199.191358,9.0617284 L199.191358,11.4938272 L199.808642,11.4938272 L199.808642,9.58641975 L206.419753,9.58641975 L206.419753,11.5123457 L206.419753,11.5123457 L206.419753,11.5123457 Z M207.259259,11.7283951 L206.209877,11.7283951 L206.209877,9.7962963 L200,9.7962963 L200,11.7283951 L198.950617,11.7283951 L198.950617,8.86419753 L199.746914,8.86419753 C200.938272,7.05555556 200.938272,5.61728395 200.938272,3.45061728 L200.938272,0.728395062 L206.216049,0.728395062 L206.216049,8.86419753 L207.240741,8.86419753 L207.240741,11.7283951 L207.240741,11.7283951 L207.259259,11.7283951 Z" id="Shape"></path>
            <polygon id="Shape" points="215.333333 0.833333333 215.333333 4.74691358 219.938272 4.74691358 219.938272 0.833333333 220.771605 0.833333333 220.771605 9.69135802 219.938272 9.69135802 219.938272 5.46296296 215.333333 5.46296296 215.333333 9.69135802 214.5 9.69135802 214.5 0.833333333 215.333333 0.833333333"></polygon>
            <path d="M220.04321,9.58641975 L220.660494,9.58641975 L220.660494,0.944444444 L220.04321,0.944444444 L220.04321,4.85802469 L215.222222,4.85802469 L215.222222,0.938271605 L214.604938,0.938271605 L214.604938,9.58024691 L215.222222,9.58024691 L215.222222,5.35802469 L220.04321,5.35802469 L220.04321,9.58641975 L220.04321,9.58641975 L220.04321,9.58641975 Z M220.876543,9.7962963 L219.82716,9.7962963 L219.82716,5.55555556 L215.432099,5.55555556 L215.432099,9.78395062 L214.388889,9.78395062 L214.388889,0.728395062 L215.432099,0.728395062 L215.432099,4.64197531 L219.82716,4.64197531 L219.82716,0.728395062 L220.876543,0.728395062 L220.876543,9.80246914 L220.876543,9.80246914 L220.876543,9.7962963 Z" id="Shape"></path>
            <path d="M231.839506,1.65432099 L231.561728,2.4691358 L229.95679,6.50617284 L233.919753,6.50617284 L232.197531,2.4691358 L231.882716,1.63580247 L231.845679,1.63580247 L231.839506,1.65432099 Z M232.407407,0.833333333 L236.111111,9.69135802 L235.246914,9.69135802 L234.222222,7.22222222 L229.691358,7.22222222 L228.703704,9.69135802 L227.777778,9.69135802 L231.296296,0.833333333 L232.388889,0.833333333 L232.407407,0.833333333 Z" id="Shape"></path>
            <path d="M230.111111,6.42592593 L233.753086,6.42592593 L232.098765,2.5308642 L231.864198,1.91358025 L231.660494,2.5308642 L230.111111,6.43209877 L230.111111,6.43209877 L230.111111,6.42592593 Z M234.074074,6.63580247 L229.796296,6.63580247 L231.481481,2.4691358 L231.783951,1.56790123 L231.969136,1.56790123 L232.290123,2.4691358 L234.074074,6.65432099 L234.074074,6.65432099 L234.074074,6.63580247 Z M235.308642,9.58641975 L235.981481,9.58641975 L232.333333,0.944444444 L231.388889,0.944444444 L227.950617,9.58641975 L228.62963,9.58641975 L229.617284,7.11728395 L234.290123,7.11728395 L235.314815,9.58641975 L235.314815,9.58641975 L235.308642,9.58641975 Z M236.296296,9.7962963 L235.185185,9.7962963 L234.160494,7.32716049 L229.771605,7.32716049 L228.783951,9.7962963 L227.660494,9.7962963 L231.265432,0.722222222 L232.5,0.722222222 L236.32716,9.7962963 L236.32716,9.7962963 L236.296296,9.7962963 Z" id="Shape"></path>
            <polygon id="Shape" points="244.006173 0.833333333 244.006173 4.74691358 248.617284 4.74691358 248.617284 0.833333333 249.450617 0.833333333 249.450617 9.69135802 248.617284 9.69135802 248.617284 5.46296296 244.006173 5.46296296 244.006173 9.69135802 243.17284 9.69135802 243.17284 0.833333333 244.006173 0.833333333"></polygon>
            <path d="M248.722222,9.58641975 L249.339506,9.58641975 L249.339506,0.944444444 L248.722222,0.944444444 L248.722222,4.85802469 L243.901235,4.85802469 L243.901235,0.938271605 L243.283951,0.938271605 L243.283951,9.58024691 L243.901235,9.58024691 L243.901235,5.35802469 L248.722222,5.35802469 L248.722222,9.58641975 L248.722222,9.58641975 L248.722222,9.58641975 Z M249.555556,9.7962963 L248.506173,9.7962963 L248.506173,5.55555556 L244.111111,5.55555556 L244.111111,9.78395062 L243.067901,9.78395062 L243.067901,0.728395062 L244.111111,0.728395062 L244.111111,4.64197531 L248.506173,4.64197531 L248.506173,0.728395062 L249.555556,0.728395062 L249.555556,9.80246914 L249.555556,9.80246914 L249.555556,9.7962963 Z" id="Shape"></path>
            <polygon id="Shape" points="258.388889 0.833333333 258.388889 4.74691358 262.993827 4.74691358 262.993827 0.833333333 263.833333 0.833333333 263.833333 9.69135802 262.993827 9.69135802 262.993827 5.46296296 258.388889 5.46296296 258.388889 9.69135802 257.555556 9.69135802 257.555556 0.833333333 258.388889 0.833333333"></polygon>
            <path d="M263.098765,9.58641975 L263.716049,9.58641975 L263.716049,0.944444444 L263.098765,0.944444444 L263.098765,4.85802469 L258.277778,4.85802469 L258.277778,0.938271605 L257.660494,0.938271605 L257.660494,9.58024691 L258.277778,9.58024691 L258.277778,5.35802469 L263.098765,5.35802469 L263.098765,9.58641975 L263.098765,9.58641975 L263.098765,9.58641975 Z M263.932099,9.7962963 L262.888889,9.7962963 L262.888889,5.55555556 L258.493827,5.55555556 L258.493827,9.78395062 L257.444444,9.78395062 L257.444444,0.728395062 L258.493827,0.728395062 L258.493827,4.64197531 L262.888889,4.64197531 L262.888889,0.728395062 L263.932099,0.728395062 L263.932099,9.80246914 L263.932099,9.80246914 L263.932099,9.7962963 Z" id="Shape"></path>
            <path d="M276.277778,1.55555556 L274.555556,1.55555556 C273.553261,1.55555556 272.740741,2.36807582 272.740741,3.37037037 C272.740741,4.37266492 273.553261,5.18518519 274.555556,5.18518519 L276.277778,5.18518519 L276.277778,1.55555556 L276.277778,1.55555556 L276.277778,1.55555556 Z M277.111111,9.69753086 L276.277778,9.69753086 L276.277778,5.90740741 L274.493827,5.90740741 L272.518519,9.69135802 L271.493827,9.69135802 L273.648148,5.74074074 C272.586289,5.45467166 271.85569,4.48223638 271.876543,3.38271605 C271.876543,2.06790123 272.753086,0.827160494 274.635802,0.827160494 L277.104938,0.827160494 L277.104938,9.69135802 L277.104938,9.69135802 L277.111111,9.69753086 Z" id="Shape"></path>
            <path d="M274.555556,1.66049383 C274.095475,1.63982788 273.648545,1.81704373 273.327644,2.14738292 C273.006743,2.47772211 272.842553,2.92960025 272.876543,3.38888889 C272.847568,3.84355143 273.014696,4.2888547 273.335661,4.61217974 C273.656626,4.93550478 274.100693,5.10589095 274.555556,5.08024691 L276.17284,5.08024691 L276.17284,1.66049383 L274.555556,1.66049383 L274.555556,1.66049383 Z M276.407407,5.2962963 L274.555556,5.2962963 C273.535873,5.23849868 272.73862,4.39477559 272.73862,3.37345679 C272.73862,2.35213799 273.535873,1.50841491 274.555556,1.45061728 L276.407407,1.45061728 L276.407407,5.2962963 L276.407407,5.2962963 L276.407407,5.2962963 Z M276.407407,9.61728395 L277.024691,9.61728395 L277.024691,0.975308642 L274.62963,0.975308642 C272.67284,0.975308642 271.975309,2.2962963 271.975309,3.44444444 C271.958759,4.49548507 272.657998,5.42356551 273.67284,5.69753086 L273.796296,5.7345679 L271.666667,9.64197531 L272.450617,9.64197531 L274.425926,5.85802469 L276.382716,5.85802469 L276.382716,9.64197531 L276.382716,9.64197531 L276.407407,9.61728395 Z M277.240741,9.82716049 L276.191358,9.82716049 L276.191358,6.01234568 L274.574074,6.01234568 L272.598765,9.7962963 L271.32716,9.7962963 L273.506173,5.80246914 C272.456933,5.46990621 271.754521,4.48300495 271.783951,3.38271605 C271.783951,2.0617284 272.666667,0.722222222 274.648148,0.722222222 L277.234568,0.722222222 L277.234568,9.7962963 L277.234568,9.7962963 L277.240741,9.82716049 Z" id="Shape"></path>
            <polygon id="Shape" points="179.728395 0.716049383 178.790123 3.47530864 177.919753 3.47530864 178.617284 0.716049383 179.728395 0.716049383"></polygon>
            <path d="M178.049383,3.37037037 L178.716049,3.37037037 L179.580247,0.820987654 L178.697531,0.820987654 L178.080247,3.37037037 L178.080247,3.37037037 L178.049383,3.37037037 Z M178.864198,3.58641975 L177.777778,3.58641975 L178.524691,0.617283951 L179.87037,0.617283951 L178.864198,3.58641975 L178.864198,3.58641975 L178.864198,3.58641975 Z" id="Shape"></path>
        </g>
    </g>
</svg>
